# xmcd
#
# Track frame offsets:
#	150
#	18906
#	37097
#	53571
#	73040
#
# Disc length: 1155 seconds
#
# Revision: 0
# Processed by: cddbd v1.5.2PL0 Copyright (c) Steve Scherf et al.
# Submitted via: audiograbber 1.83.01
#
DISCID=3b048105
DTITLE=Alligator Express - Hot Louisiana Music
DYEAR=2002
DGENRE=Ethnic
TTITLE0=I Feel Allright
TTITLE1=T-bone Shuffle
TTITLE2=La Bas Two Step
TTITLE3=You're No Good For ME
TTITLE4=Jumpin' For Joe
EXTD=
EXTT0=
EXTT1=
EXTT2=
EXTT3=
EXTT4=
PLAYORDER=
